<svg width="182" height="183" viewBox="0 0 182 183" fill="none" xmlns="http://www.w3.org/2000/svg">
<path fill-rule="evenodd" clip-rule="evenodd" d="M28.8682 86.5714C28.8682 71.2646 34.9488 56.5848 45.7723 45.7613C56.5958 34.9377 71.2757 28.8571 86.5825 28.8571C101.889 28.8571 116.569 34.9377 127.393 45.7613C138.216 56.5848 144.297 71.2646 144.297 86.5714C144.297 101.878 138.216 116.558 127.393 127.382C116.569 138.205 101.889 144.286 86.5825 144.286C71.2757 144.286 56.5958 138.205 45.7723 127.382C34.9488 116.558 28.8682 101.878 28.8682 86.5714ZM86.5825 1.63709e-06C72.9576 -0.00173705 59.5247 3.21241 47.3763 9.38104C35.2279 15.5497 24.707 24.4986 16.6692 35.5C8.63145 46.5014 3.30383 59.2446 1.11965 72.6932C-1.06454 86.1419 -0.0436101 99.9162 4.0994 112.896C8.2424 125.875 15.3905 137.694 24.9623 147.39C34.5342 157.086 46.2594 164.387 59.1845 168.697C72.1096 173.007 85.8696 174.206 99.3453 172.195C112.821 170.185 125.632 165.022 136.736 157.127L157.153 178C159.874 180.628 163.519 182.083 167.302 182.05C171.085 182.017 174.704 180.499 177.379 177.824C180.054 175.149 181.571 171.53 181.604 167.747C181.637 163.964 180.183 160.319 177.555 157.598L157.153 136.74C166.362 123.788 171.829 108.551 172.954 92.6989C174.078 76.8466 170.818 60.9906 163.53 46.8683C156.241 32.746 145.206 20.9025 131.634 12.6354C118.061 4.3684 102.475 -0.00308845 86.5825 1.63709e-06Z" fill="#085C81"/>
<path d="M68.2976 54H47L75.87 126.885H97.6409L68.2976 54Z" fill="#085C81" stroke="#085C81" stroke-width="0.946558"/>
<path d="M105.213 54.4733H126.511L97.6409 127.358H75.87L105.213 54.4733Z" fill="#30B0C7" stroke="#30B0C7" stroke-width="0.946558"/>
</svg>
